<?xml version="1.0" encoding="utf-8"?>
<!DOCTYPE svg PUBLIC "-//W3C//DTD SVG 1.1//EN" "http://www.w3.org/Graphics/SVG/1.1/DTD/svg11.dtd">
<svg version="1.1" id="Layer_1" xmlns="http://www.w3.org/2000/svg" xmlns:xlink="http://www.w3.org/1999/xlink" x="0px" y="0px"
	 width="79.125px" height="79.125px" viewBox="0 0 79.125 79.125" enable-background="new 0 0 79.125 79.125" xml:space="preserve">
<path fill="#000000" d="M24.5,44.625L9.847,59.78L0,47.625v31.5h31.5L19.347,69.28L34.5,54.625L24.5,44.625z"/>
<path fill="#000000" d="M44.625,54.625l15.154,14.652l-12.154,9.848h31.5v-31.5l-9.846,12.152L54.625,44.625L44.625,54.625z"/>
<path fill="#000000" d="M47.49,39.562c0,4.38-3.549,7.929-7.928,7.929l0,0c-4.378,0-7.928-3.549-7.928-7.929l0,0
	c0-4.378,3.549-7.928,7.928-7.928l0,0C43.941,31.634,47.49,35.184,47.49,39.562L47.49,39.562z"/>
<polygon fill="#000000" points="0.062,31.375 9.792,19.356 24.438,34.5 34.438,24.5 19.277,9.838 31.562,-0.125 0.062,-0.125 "/>
<polygon fill="#000000" points="47.625,0 59.645,9.73 44.5,24.376 54.5,34.376 69.162,19.215 79.125,31.5 79.125,0 "/>
</svg>
